<?xml version="1.0" encoding="utf-8"?>
<!-- Generator: Adobe Illustrator 19.0.0, SVG Export Plug-In . SVG Version: 6.00 Build 0)  -->
<svg version="1.1" id="Layer_1" xmlns="http://www.w3.org/2000/svg" xmlns:xlink="http://www.w3.org/1999/xlink" x="0px" y="0px"
	 viewBox="0 0 681 98" style="enable-background:new 0 0 681 98;" xml:space="preserve">
<style type="text/css">
	.st0{clip-path:url(#XMLID_57_);fill:#636466;}
	.st1{clip-path:url(#XMLID_57_);fill:#0082CA;}
</style>
<g id="XMLID_2_">
	<defs>
		<rect id="XMLID_3_" x="5.4" y="5" width="670.6" height="89"/>
	</defs>
	<clipPath id="XMLID_57_">
		<use xlink:href="#XMLID_3_"  style="overflow:visible;"/>
	</clipPath>
	<path id="XMLID_11_" class="st0" d="M633.2,36c13.4,0,18.8,12.2,18.8,25.3s-5.4,25.3-20.2,25.3c-12.1,0-17.3-10.4-17.3-25.3
		C614.4,48.2,619.8,36,633.2,36 M652.3,92h23.6v-6.2h-7.6c-3,0-4.9-1.6-4.9-4.7V5h-24v6.2h6.8c4.3,0,6,3.2,6,7.5v23h-0.3
		c-4.5-8.3-13.4-13-21.8-13c-19.7,0-28.4,16.7-28.4,32.7S610.6,94,630.3,94c11.6,0,17.1-5,21.8-13.8h0.3V92z M538.3,30.6h-24.8v6.2
		h8.5c4.3,0,5.3,2,5.3,6v37c0,4.1-0.9,6-5.3,6h-8.5V92h38.2v-6.2h-8c-4.3,0-5.3-2-5.3-6V56.5c0-10.5,7.4-20.5,19.8-20.5
		c10.1,0,13.5,5.4,13.5,14.4v29.4c0,4.1-0.9,6-5.3,6h-7.2V92H596v-6.2h-7.9c-4.3,0-5.3-2-5.3-6V51.3c0-13.7-7.4-22.7-21.1-22.7
		c-10.1,0-18,4.9-23.2,13.1h-0.3V30.6z M456.5,55.9c0-11.4,5.6-21.1,17.9-21.1c11.9,0,17.1,9.7,17.1,21.1H456.5z M503.8,62.1
		c-1.2-18.6-8-33.5-29.1-33.5c-19.4,0-30.7,11.2-30.7,32.7S455.3,94,474.7,94c15.5,0,24.5-7.7,27.4-21.9h-7.6
		c-2.8,10.2-9.2,15.8-19.7,15.8c-15.5,0-18.4-12.3-18.4-25.7H503.8z M374.4,67.2v25.5h6.8l2.5-6.8c6,5.6,14.2,8.1,22.3,8.1
		c12.1,0,24.4-5.3,24.4-19c0-25.7-44.1-14-44.1-29.7c0-8.5,6.7-10.5,12.5-10.5c10.8,0,20.7,7.7,22.2,19.3h6.2V29.9h-5.9l-2.4,6.2
		c-5.5-4.9-13-7.5-20.3-7.5c-11.4,0-23.4,5-23.4,18.1c0,26.9,44.1,13.9,44.1,30.8c0,6.3-5.8,10.2-13.7,10.2
		c-12.5,0-22.4-8.1-24.4-20.6H374.4z"/>
	<path id="XMLID_4_" class="st1" d="M326.8,34.8c16.3,0,21.4,12.3,21.4,26.5s-5.1,26.5-21.4,26.5s-21.4-12.3-21.4-26.5
		S310.6,34.8,326.8,34.8 M326.8,28.6c-21.1,0-33.9,13.8-33.9,32.7S305.7,94,326.8,94s33.9-13.8,33.9-32.7S348,28.6,326.8,28.6
		 M228.6,30.6h-24.8v6.2h8.5c4.3,0,5.3,2,5.3,6v37c0,4.1-0.9,6-5.3,6h-8.5V92h38.2v-6.2h-8c-4.3,0-5.3-2-5.3-6V56.5
		C228.7,46,236,36,248.5,36c10.1,0,13.5,5.4,13.5,14.4v29.4c0,4.1-0.9,6-5.3,6h-7.2V92h36.8v-6.2h-7.9c-4.3,0-5.3-2-5.3-6V51.3
		c0-13.7-7.4-22.7-21.1-22.7c-10.1,0-18,4.9-23.2,13.1h-0.3V30.6z M163,34.8c16.3,0,21.4,12.3,21.4,26.5s-5.1,26.5-21.4,26.5
		s-21.4-12.3-21.4-26.5S146.7,34.8,163,34.8 M163,28.6c-21.1,0-33.9,13.8-33.9,32.7S141.9,94,163,94s33.9-13.8,33.9-32.7
		S184.1,28.6,163,28.6 M30.3,30.6H5.4v6.2h8.5c4.3,0,5.3,2,5.3,6v37c0,4.1-0.9,6-5.3,6H5.4V92h36.1v-6.2h-5.9c-4.3,0-5.3-2-5.3-6
		V54.9c0-8,7.7-18.9,17.6-18.9c7.6,0,11.8,5.4,11.8,13.4v30.5c0,4.1-0.9,6-5.3,6h-6V92h33.7v-6.2h-6c-4.3,0-5.3-2-5.3-6V54.9
		c0-8.5,8-18.9,17.7-18.9c7,0,11.7,3.9,11.7,11.8v32c0,4.1-0.9,6-5.3,6h-6.2V92h35.4v-6.2h-7.6c-4.3,0-5.3-2-5.3-6V57.1
		c0-16.5-2.2-28.5-20-28.5c-9.8,0-16.1,4.9-22.1,13.3C67.2,34,60.9,28.6,52,28.6c-10.8,0-15.9,5-21.4,13.3h-0.3V30.6z"/>
</g>
</svg>
