<?xml version="1.0" encoding="utf-8"?>
<!-- Generator: Adobe Illustrator 19.0.0, SVG Export Plug-In . SVG Version: 6.00 Build 0)  -->
<svg version="1.1" id="Layer_1" xmlns="http://www.w3.org/2000/svg" xmlns:xlink="http://www.w3.org/1999/xlink" x="0px" y="0px"
	 viewBox="-619 492 681 98" style="enable-background:new -619 492 681 98;" xml:space="preserve">
<style type="text/css">
	.st0{fill:#636466;}
	.st1{fill:#0093D0;}
</style>
<g id="XMLID_2_">
	<g>
		<path id="XMLID_11_" class="st0" d="M14.2,528c13.4,0,18.8,12.2,18.8,25.3c0,13.1-5.4,25.3-20.2,25.3c-12.1,0-17.3-10.4-17.3-25.3
			C-4.6,540.2,0.8,528,14.2,528 M33.3,584h23.6v-6.2h-7.6c-3,0-4.9-1.6-4.9-4.7V497h-24v6.2h6.8c4.3,0,6,3.2,6,7.5v23h-0.3
			c-4.5-8.3-13.4-13-21.8-13c-19.7,0-28.4,16.7-28.4,32.7S-8.4,586,11.3,586c11.6,0,17.1-5,21.8-13.8h0.3L33.3,584L33.3,584z
			 M-80.7,522.6h-24.8v6.2h8.5c4.3,0,5.3,2,5.3,6v37c0,4.1-0.9,6-5.3,6h-8.5v6.2h38.2v-6.2h-8c-4.3,0-5.3-2-5.3-6v-23.3
			c0-10.5,7.4-20.5,19.8-20.5c10.1,0,13.5,5.4,13.5,14.4v29.4c0,4.1-0.9,6-5.3,6h-7.2v6.2H-23v-6.2h-7.9c-4.3,0-5.3-2-5.3-6v-28.5
			c0-13.7-7.4-22.7-21.1-22.7c-10.1,0-18,4.9-23.2,13.1h-0.3L-80.7,522.6L-80.7,522.6z M-162.5,547.9c0-11.4,5.6-21.1,17.9-21.1
			c11.9,0,17.1,9.7,17.1,21.1H-162.5z M-115.2,554.1c-1.2-18.6-8-33.5-29.1-33.5c-19.4,0-30.7,11.2-30.7,32.7s11.3,32.7,30.7,32.7
			c15.5,0,24.5-7.7,27.4-21.9h-7.6c-2.8,10.2-9.2,15.8-19.7,15.8c-15.5,0-18.4-12.3-18.4-25.7h47.4V554.1z M-244.6,559.2v25.5h6.8
			l2.5-6.8c6,5.6,14.2,8.1,22.3,8.1c12.1,0,24.4-5.3,24.4-19c0-25.7-44.1-14-44.1-29.7c0-8.5,6.7-10.5,12.5-10.5
			c10.8,0,20.7,7.7,22.2,19.3h6.2v-24.2h-5.9l-2.4,6.2c-5.5-4.9-13-7.5-20.3-7.5c-11.4,0-23.4,5-23.4,18.1
			c0,26.9,44.1,13.9,44.1,30.8c0,6.3-5.8,10.2-13.7,10.2c-12.5,0-22.4-8.1-24.4-20.6h-6.8V559.2z"/>
	</g>
	<g>
		<path id="XMLID_4_" class="st1" d="M-292.2,526.8c16.3,0,21.4,12.3,21.4,26.5s-5.1,26.5-21.4,26.5s-21.4-12.3-21.4-26.5
			S-308.4,526.8-292.2,526.8 M-292.2,520.6c-21.1,0-33.9,13.8-33.9,32.7c0,18.9,12.8,32.7,33.9,32.7s33.9-13.8,33.9-32.7
			C-258.3,534.4-271,520.6-292.2,520.6 M-390.4,522.6h-24.8v6.2h8.5c4.3,0,5.3,2,5.3,6v37c0,4.1-0.9,6-5.3,6h-8.5v6.2h38.2v-6.2h-8
			c-4.3,0-5.3-2-5.3-6v-23.3c0-10.5,7.3-20.5,19.8-20.5c10.1,0,13.5,5.4,13.5,14.4v29.4c0,4.1-0.9,6-5.3,6h-7.2v6.2h36.8v-6.2h-7.9
			c-4.3,0-5.3-2-5.3-6v-28.5c0-13.7-7.4-22.7-21.1-22.7c-10.1,0-18,4.9-23.2,13.1h-0.3L-390.4,522.6L-390.4,522.6z M-456,526.8
			c16.3,0,21.4,12.3,21.4,26.5s-5.1,26.5-21.4,26.5s-21.4-12.3-21.4-26.5S-472.3,526.8-456,526.8 M-456,520.6
			c-21.1,0-33.9,13.8-33.9,32.7c0,18.9,12.8,32.7,33.9,32.7s33.9-13.8,33.9-32.7C-422.1,534.4-434.9,520.6-456,520.6 M-588.7,522.6
			h-24.9v6.2h8.5c4.3,0,5.3,2,5.3,6v37c0,4.1-0.9,6-5.3,6h-8.5v6.2h36.1v-6.2h-5.9c-4.3,0-5.3-2-5.3-6v-24.9c0-8,7.7-18.9,17.6-18.9
			c7.6,0,11.8,5.4,11.8,13.4v30.5c0,4.1-0.9,6-5.3,6h-6v6.1h33.7v-6.2h-6c-4.3,0-5.3-2-5.3-6v-24.9c0-8.5,8-18.9,17.7-18.9
			c7,0,11.7,3.9,11.7,11.8v32c0,4.1-0.9,6-5.3,6h-6.2v6.2h35.4v-6.2h-7.6c-4.3,0-5.3-2-5.3-6v-22.7c0-16.5-2.2-28.5-20-28.5
			c-9.8,0-16.1,4.9-22.1,13.3c-1.9-7.9-8.2-13.3-17.1-13.3c-10.8,0-15.9,5-21.4,13.3h-0.3C-588.7,533.9-588.7,522.6-588.7,522.6z"/>
	</g>
</g>
</svg>
